<svg width="57" height="57" viewBox="0 0 57 57" fill="none" xmlns="http://www.w3.org/2000/svg">
<path d="M10.45 28.5C10.45 38.4532 18.5469 46.55 28.5 46.55C38.4532 46.55 46.55 38.4532 46.55 28.5C46.55 18.5469 38.4532 10.45 28.5 10.45C18.5469 10.45 10.45 18.5469 10.45 28.5ZM16.15 38.8854V28.292L21.85 26.866V43.2003C19.6413 42.1971 17.6947 40.7189 16.15 38.8854ZM33.25 43.9347C32.6325 44.1247 31.996 44.2672 31.35 44.3821V41.8C31.35 41.2747 30.9244 40.85 30.4 40.85H26.6C26.0756 40.85 25.65 41.2747 25.65 41.8V44.3831C25.004 44.2672 24.3675 44.1256 23.75 43.9356V19.95H33.25V43.9347ZM27.55 44.6016V42.75H29.45V44.6016C29.1337 44.6206 28.8211 44.65 28.5 44.65C28.1789 44.65 27.8664 44.6206 27.55 44.6016ZM35.15 43.2003V26.867L40.85 28.2929V38.8864C39.3053 40.7189 37.3588 42.1971 35.15 43.2003V43.2003ZM28.5 12.35C37.4053 12.35 44.65 19.5947 44.65 28.5C44.65 31.2408 43.9594 33.821 42.75 36.0839V27.55C42.75 27.114 42.4536 26.7349 42.0309 26.6285L35.15 24.909V19C35.15 18.4747 34.7244 18.05 34.2 18.05H22.8C22.2756 18.05 21.85 18.4747 21.85 19V24.909L14.9692 26.6295C14.5464 26.7349 14.25 27.114 14.25 27.55V36.0839C13.0407 33.821 12.35 31.2408 12.35 28.5C12.35 19.5947 19.5947 12.35 28.5 12.35V12.35Z" fill="#1E2329"/>
<path d="M18.05 29.45H19.95V31.35H18.05V29.45Z" fill="#1E2329"/>
<path d="M18.05 33.25H19.95V35.15H18.05V33.25Z" fill="#1E2329"/>
<path d="M18.05 37.05H19.95V38.95H18.05V37.05Z" fill="#1E2329"/>
<path d="M37.05 29.45H38.95V31.35H37.05V29.45Z" fill="#1E2329"/>
<path d="M37.05 33.25H38.95V35.15H37.05V33.25Z" fill="#1E2329"/>
<path d="M37.05 37.05H38.95V38.95H37.05V37.05Z" fill="#1E2329"/>
<path d="M25.65 22.8H27.55V26.6H25.65V22.8Z" fill="#1E2329"/>
<path d="M29.45 22.8H31.35V26.6H29.45V22.8Z" fill="#1E2329"/>
<path d="M25.65 28.5H27.55V32.3H25.65V28.5Z" fill="#1E2329"/>
<path d="M29.45 28.5H31.35V32.3H29.45V28.5Z" fill="#1E2329"/>
<path d="M25.65 34.2H27.55V38H25.65V34.2Z" fill="#1E2329"/>
<path d="M29.45 34.2H31.35V38H29.45V34.2Z" fill="#1E2329"/>
<path d="M12.35 6.65C13.5869 6.65 14.6319 5.85295 15.0252 4.75H19C19.2052 4.75 19.4057 4.6835 19.57 4.56L23.1164 1.9H25.65V0H22.8C22.5948 0 22.3943 0.0665 22.23 0.19L18.6836 2.85H15.0252C14.6319 1.74705 13.5869 0.95 12.35 0.95C10.7787 0.95 9.5 2.2287 9.5 3.8C9.5 5.3713 10.7787 6.65 12.35 6.65ZM12.35 2.85C12.8734 2.85 13.3 3.2756 13.3 3.8C13.3 4.3244 12.8734 4.75 12.35 4.75C11.8265 4.75 11.4 4.3244 11.4 3.8C11.4 3.2756 11.8265 2.85 12.35 2.85Z" fill="#1E2329"/>
<path d="M55.1 21.85L53.2693 21.8414C52.6927 19.6868 51.8358 17.6187 50.7157 15.6883L52.0115 14.3925C52.7525 13.6524 52.7525 12.4459 52.0115 11.7059L45.2941 4.98845C44.554 4.2484 43.3475 4.2484 42.6065 4.98845L41.3079 6.2757C39.3822 5.16515 37.3131 4.30825 35.15 3.73445V1.9C35.15 0.85215 34.2978 0 33.25 0H31.35V1.9H33.25V3.73445C33.25 4.5885 33.8323 5.3409 34.6664 5.56605C36.6605 6.1009 38.5757 6.8932 40.3579 7.92205C41.1055 8.35335 42.0508 8.2327 42.654 7.62755L43.9498 6.33175L50.6673 13.0492L49.3715 14.345C48.7673 14.9492 48.6466 15.8935 49.077 16.6411C50.1058 18.4243 50.8991 20.3395 51.433 22.3326C51.6572 23.1676 52.4105 23.75 53.2655 23.75H55.1V33.25H53.2655C52.4105 33.25 51.6581 33.8324 51.4349 34.6665C50.901 36.6605 50.1077 38.5747 49.0789 40.3579C48.6476 41.1055 48.7682 42.0498 49.3734 42.654L50.6692 43.9498L43.9517 50.6673L42.6559 49.3715C42.0517 48.7654 41.1074 48.6457 40.3598 49.077C38.5776 50.1058 36.6624 50.8981 34.6693 51.433C33.8333 51.6572 33.25 52.4096 33.25 53.2655V55.1H31.35V57H33.25C34.2978 57 35.15 56.1478 35.15 55.1L35.1585 53.2694C37.3131 52.6918 39.3822 51.8348 41.3117 50.7157L42.6075 52.0115C43.3475 52.7516 44.554 52.7516 45.295 52.0115L52.0125 45.2941C52.7535 44.5541 52.7535 43.3475 52.0125 42.6075L50.7252 41.3089C51.8377 39.3823 52.6936 37.3131 53.2665 35.1509H55.1C56.1478 35.1509 57 34.2988 57 33.2509V23.75C57 22.7021 56.1478 21.85 55.1 21.85V21.85Z" fill="#1E2329"/>
<path d="M19.57 52.44C19.4057 52.3165 19.2052 52.25 19 52.25H15.0252C14.6319 51.1471 13.5869 50.35 12.35 50.35C10.7787 50.35 9.5 51.6287 9.5 53.2C9.5 54.7713 10.7787 56.05 12.35 56.05C13.5869 56.05 14.6319 55.253 15.0252 54.15H18.6836L22.23 56.81C22.3943 56.9335 22.5948 57 22.8 57H25.65V55.1H23.1164L19.57 52.44ZM12.35 54.15C11.8265 54.15 11.4 53.7244 11.4 53.2C11.4 52.6756 11.8265 52.25 12.35 52.25C12.8734 52.25 13.3 52.6756 13.3 53.2C13.3 53.7244 12.8734 54.15 12.35 54.15V54.15Z" fill="#1E2329"/>
<path d="M11.9567 45.6L14.5283 48.1716C14.706 48.3502 14.9482 48.45 15.2 48.45H19.95V46.55H15.5933L13.0216 43.9783C12.844 43.7997 12.6017 43.7 12.35 43.7H8.37518C7.98188 42.597 6.93688 41.8 5.69998 41.8C4.12868 41.8 2.84998 43.0787 2.84998 44.65C2.84998 46.2213 4.12868 47.5 5.69998 47.5C6.93688 47.5 7.98188 46.7029 8.37518 45.6H11.9567ZM5.69998 45.6C5.17653 45.6 4.74998 45.1744 4.74998 44.65C4.74998 44.1256 5.17653 43.7 5.69998 43.7C6.22343 43.7 6.64998 44.1256 6.64998 44.65C6.64998 45.1744 6.22343 45.6 5.69998 45.6Z" fill="#1E2329"/>
<path d="M5.69998 15.2C6.93688 15.2 7.98188 14.4029 8.37518 13.3H12.35C12.6017 13.3 12.844 13.2002 13.0216 13.0216L15.5933 10.45H19.95V8.54999H15.2C14.9482 8.54999 14.706 8.64974 14.5283 8.82834L11.9567 11.4H8.37518C7.98188 10.297 6.93688 9.49999 5.69998 9.49999C4.12868 9.49999 2.84998 10.7787 2.84998 12.35C2.84998 13.9213 4.12868 15.2 5.69998 15.2V15.2ZM5.69998 11.4C6.22343 11.4 6.64998 11.8256 6.64998 12.35C6.64998 12.8744 6.22343 13.3 5.69998 13.3C5.17653 13.3 4.74998 12.8744 4.74998 12.35C4.74998 11.8256 5.17653 11.4 5.69998 11.4Z" fill="#1E2329"/>
<path d="M2.85 25.65C4.0869 25.65 5.1319 24.853 5.5252 23.75H8.55V21.85H5.5252C5.1319 20.7471 4.0869 19.95 2.85 19.95C1.2787 19.95 0 21.2287 0 22.8C0 24.3713 1.2787 25.65 2.85 25.65ZM2.85 21.85C3.37345 21.85 3.8 22.2756 3.8 22.8C3.8 23.3244 3.37345 23.75 2.85 23.75C2.32655 23.75 1.9 23.3244 1.9 22.8C1.9 22.2756 2.32655 21.85 2.85 21.85Z" fill="#1E2329"/>
<path d="M5.5252 35.15H8.55V33.25H5.5252C5.1319 32.1471 4.0869 31.35 2.85 31.35C1.2787 31.35 0 32.6287 0 34.2C0 35.7713 1.2787 37.05 2.85 37.05C4.0869 37.05 5.1319 36.253 5.5252 35.15ZM1.9 34.2C1.9 33.6756 2.32655 33.25 2.85 33.25C3.37345 33.25 3.8 33.6756 3.8 34.2C3.8 34.7244 3.37345 35.15 2.85 35.15C2.32655 35.15 1.9 34.7244 1.9 34.2Z" fill="#1E2329"/>
<path d="M27.55 55.1H29.45V57H27.55V55.1Z" fill="#1E2329"/>
</svg>
