<svg width="227" height="57" viewBox="0 0 227 57" fill="none" xmlns="http://www.w3.org/2000/svg">
<path d="M10.45 28.5C10.45 38.4532 18.5469 46.55 28.5 46.55C38.4532 46.55 46.55 38.4532 46.55 28.5C46.55 18.5469 38.4532 10.45 28.5 10.45C18.5469 10.45 10.45 18.5469 10.45 28.5ZM16.15 38.8854V28.292L21.85 26.866V43.2003C19.6413 42.1971 17.6947 40.7189 16.15 38.8854ZM33.25 43.9347C32.6325 44.1247 31.996 44.2672 31.35 44.3821V41.8C31.35 41.2747 30.9244 40.85 30.4 40.85H26.6C26.0756 40.85 25.65 41.2747 25.65 41.8V44.3831C25.004 44.2672 24.3675 44.1256 23.75 43.9356V19.95H33.25V43.9347ZM27.55 44.6016V42.75H29.45V44.6016C29.1337 44.6206 28.8211 44.65 28.5 44.65C28.1789 44.65 27.8664 44.6206 27.55 44.6016ZM35.15 43.2003V26.867L40.85 28.2929V38.8864C39.3053 40.7189 37.3588 42.1971 35.15 43.2003V43.2003ZM28.5 12.35C37.4053 12.35 44.65 19.5947 44.65 28.5C44.65 31.2408 43.9594 33.821 42.75 36.0839V27.55C42.75 27.114 42.4536 26.7349 42.0309 26.6285L35.15 24.909V19C35.15 18.4747 34.7244 18.05 34.2 18.05H22.8C22.2756 18.05 21.85 18.4747 21.85 19V24.909L14.9692 26.6295C14.5464 26.7349 14.25 27.114 14.25 27.55V36.0839C13.0407 33.821 12.35 31.2408 12.35 28.5C12.35 19.5947 19.5947 12.35 28.5 12.35V12.35Z" fill="#1E2329"/>
<path d="M18.05 29.45H19.95V31.35H18.05V29.45Z" fill="#1E2329"/>
<path d="M18.05 33.25H19.95V35.15H18.05V33.25Z" fill="#1E2329"/>
<path d="M18.05 37.05H19.95V38.95H18.05V37.05Z" fill="#1E2329"/>
<path d="M37.05 29.45H38.95V31.35H37.05V29.45Z" fill="#1E2329"/>
<path d="M37.05 33.25H38.95V35.15H37.05V33.25Z" fill="#1E2329"/>
<path d="M37.05 37.05H38.95V38.95H37.05V37.05Z" fill="#1E2329"/>
<path d="M25.65 22.8H27.55V26.6H25.65V22.8Z" fill="#1E2329"/>
<path d="M29.45 22.8H31.35V26.6H29.45V22.8Z" fill="#1E2329"/>
<path d="M25.65 28.5H27.55V32.3H25.65V28.5Z" fill="#1E2329"/>
<path d="M29.45 28.5H31.35V32.3H29.45V28.5Z" fill="#1E2329"/>
<path d="M25.65 34.2H27.55V38H25.65V34.2Z" fill="#1E2329"/>
<path d="M29.45 34.2H31.35V38H29.45V34.2Z" fill="#1E2329"/>
<path d="M12.35 6.65C13.5869 6.65 14.6319 5.85295 15.0252 4.75H19C19.2052 4.75 19.4057 4.6835 19.57 4.56L23.1164 1.9H25.65V0H22.8C22.5948 0 22.3943 0.0665 22.23 0.19L18.6836 2.85H15.0252C14.6319 1.74705 13.5869 0.95 12.35 0.95C10.7787 0.95 9.5 2.2287 9.5 3.8C9.5 5.3713 10.7787 6.65 12.35 6.65ZM12.35 2.85C12.8734 2.85 13.3 3.2756 13.3 3.8C13.3 4.3244 12.8734 4.75 12.35 4.75C11.8265 4.75 11.4 4.3244 11.4 3.8C11.4 3.2756 11.8265 2.85 12.35 2.85Z" fill="#1E2329"/>
<path d="M55.1 21.85L53.2693 21.8414C52.6927 19.6868 51.8358 17.6187 50.7157 15.6883L52.0115 14.3925C52.7525 13.6524 52.7525 12.4459 52.0115 11.7059L45.2941 4.98845C44.554 4.2484 43.3475 4.2484 42.6065 4.98845L41.3079 6.2757C39.3822 5.16515 37.3131 4.30825 35.15 3.73445V1.9C35.15 0.85215 34.2978 0 33.25 0H31.35V1.9H33.25V3.73445C33.25 4.5885 33.8323 5.3409 34.6664 5.56605C36.6605 6.1009 38.5757 6.8932 40.3579 7.92205C41.1055 8.35335 42.0508 8.2327 42.654 7.62755L43.9498 6.33175L50.6673 13.0492L49.3715 14.345C48.7673 14.9492 48.6466 15.8935 49.077 16.6411C50.1058 18.4243 50.8991 20.3395 51.433 22.3326C51.6572 23.1676 52.4105 23.75 53.2655 23.75H55.1V33.25H53.2655C52.4105 33.25 51.6581 33.8324 51.4349 34.6665C50.901 36.6605 50.1077 38.5747 49.0789 40.3579C48.6476 41.1055 48.7682 42.0498 49.3734 42.654L50.6692 43.9498L43.9517 50.6673L42.6559 49.3715C42.0517 48.7654 41.1074 48.6457 40.3598 49.077C38.5776 50.1058 36.6624 50.8981 34.6693 51.433C33.8333 51.6572 33.25 52.4096 33.25 53.2655V55.1H31.35V57H33.25C34.2978 57 35.15 56.1478 35.15 55.1L35.1585 53.2694C37.3131 52.6918 39.3822 51.8348 41.3117 50.7157L42.6075 52.0115C43.3475 52.7516 44.554 52.7516 45.295 52.0115L52.0125 45.2941C52.7535 44.5541 52.7535 43.3475 52.0125 42.6075L50.7252 41.3089C51.8377 39.3823 52.6936 37.3131 53.2665 35.1509H55.1C56.1478 35.1509 57 34.2988 57 33.2509V23.75C57 22.7021 56.1478 21.85 55.1 21.85V21.85Z" fill="#1E2329"/>
<path d="M19.57 52.44C19.4057 52.3165 19.2052 52.25 19 52.25H15.0252C14.6319 51.1471 13.5869 50.35 12.35 50.35C10.7787 50.35 9.5 51.6287 9.5 53.2C9.5 54.7713 10.7787 56.05 12.35 56.05C13.5869 56.05 14.6319 55.253 15.0252 54.15H18.6836L22.23 56.81C22.3943 56.9335 22.5948 57 22.8 57H25.65V55.1H23.1164L19.57 52.44ZM12.35 54.15C11.8265 54.15 11.4 53.7244 11.4 53.2C11.4 52.6756 11.8265 52.25 12.35 52.25C12.8734 52.25 13.3 52.6756 13.3 53.2C13.3 53.7244 12.8734 54.15 12.35 54.15V54.15Z" fill="#1E2329"/>
<path d="M11.9567 45.6L14.5283 48.1716C14.706 48.3502 14.9482 48.45 15.2 48.45H19.95V46.55H15.5933L13.0216 43.9783C12.844 43.7997 12.6017 43.7 12.35 43.7H8.37518C7.98188 42.597 6.93688 41.8 5.69998 41.8C4.12868 41.8 2.84998 43.0787 2.84998 44.65C2.84998 46.2213 4.12868 47.5 5.69998 47.5C6.93688 47.5 7.98188 46.7029 8.37518 45.6H11.9567ZM5.69998 45.6C5.17653 45.6 4.74998 45.1744 4.74998 44.65C4.74998 44.1256 5.17653 43.7 5.69998 43.7C6.22343 43.7 6.64998 44.1256 6.64998 44.65C6.64998 45.1744 6.22343 45.6 5.69998 45.6Z" fill="#1E2329"/>
<path d="M5.69998 15.2C6.93688 15.2 7.98188 14.4029 8.37518 13.3H12.35C12.6017 13.3 12.844 13.2002 13.0216 13.0216L15.5933 10.45H19.95V8.54999H15.2C14.9482 8.54999 14.706 8.64974 14.5283 8.82834L11.9567 11.4H8.37518C7.98188 10.297 6.93688 9.49999 5.69998 9.49999C4.12868 9.49999 2.84998 10.7787 2.84998 12.35C2.84998 13.9213 4.12868 15.2 5.69998 15.2V15.2ZM5.69998 11.4C6.22343 11.4 6.64998 11.8256 6.64998 12.35C6.64998 12.8744 6.22343 13.3 5.69998 13.3C5.17653 13.3 4.74998 12.8744 4.74998 12.35C4.74998 11.8256 5.17653 11.4 5.69998 11.4Z" fill="#1E2329"/>
<path d="M2.85 25.65C4.0869 25.65 5.1319 24.853 5.5252 23.75H8.55V21.85H5.5252C5.1319 20.7471 4.0869 19.95 2.85 19.95C1.2787 19.95 0 21.2287 0 22.8C0 24.3713 1.2787 25.65 2.85 25.65ZM2.85 21.85C3.37345 21.85 3.8 22.2756 3.8 22.8C3.8 23.3244 3.37345 23.75 2.85 23.75C2.32655 23.75 1.9 23.3244 1.9 22.8C1.9 22.2756 2.32655 21.85 2.85 21.85Z" fill="#1E2329"/>
<path d="M5.5252 35.15H8.55V33.25H5.5252C5.1319 32.1471 4.0869 31.35 2.85 31.35C1.2787 31.35 0 32.6287 0 34.2C0 35.7713 1.2787 37.05 2.85 37.05C4.0869 37.05 5.1319 36.253 5.5252 35.15ZM1.9 34.2C1.9 33.6756 2.32655 33.25 2.85 33.25C3.37345 33.25 3.8 33.6756 3.8 34.2C3.8 34.7244 3.37345 35.15 2.85 35.15C2.32655 35.15 1.9 34.7244 1.9 34.2Z" fill="#1E2329"/>
<path d="M27.55 55.1H29.45V57H27.55V55.1Z" fill="#1E2329"/>
<path d="M90.58 25.1C90.6067 25.3 90.62 25.52 90.62 25.76C90.62 25.9867 90.6067 26.16 90.58 26.28C89.8867 26.3467 89.2333 26.38 88.62 26.38H87.78L87.3 30.28L90.02 30.3C90.0467 30.5 90.06 30.72 90.06 30.96C90.06 31.1867 90.0467 31.36 90.02 31.48C89.3267 31.5467 88.6733 31.58 88.06 31.58H87.14L86.66 35.5C86.5667 35.5267 86.4133 35.54 86.2 35.54L85.58 35.5L85.92 31.58C84.56 31.5533 83.4333 31.54 82.54 31.54L82.06 35.5C81.9667 35.5267 81.8133 35.54 81.6 35.54L80.98 35.5L81.32 31.52L78.56 31.48C78.5333 31.36 78.52 31.18 78.52 30.94L78.56 30.3C79.2533 30.2333 79.9067 30.2 80.52 30.2H81.44L81.78 26.32L79.12 26.28C79.0933 26.16 79.08 25.98 79.08 25.74L79.12 25.1C79.8133 25.0333 80.4667 25 81.08 25H81.88L82.2 21.52C82.56 21.48 82.88 21.46 83.16 21.46C83.44 21.46 83.6533 21.4667 83.8 21.48L83.36 25.02C84.0533 25.02 85.0933 25.0333 86.48 25.06L86.8 21.52C87 21.48 87.28 21.46 87.64 21.46C88 21.46 88.2533 21.4667 88.4 21.48L87.94 25.08L90.58 25.1ZM86.38 26.36L83.2 26.34L82.7 30.22L86.04 30.26L86.38 26.36ZM93.7198 34.22C94.1865 34.42 94.7532 34.52 95.4198 34.52C96.0998 34.52 96.6332 34.3933 97.0198 34.14C97.4065 33.8867 97.5998 33.54 97.5998 33.1C97.5998 32.66 97.4198 32.2933 97.0598 32C96.6998 31.7067 96.2598 31.4467 95.7398 31.22C95.2198 30.9933 94.6998 30.7533 94.1798 30.5C93.6598 30.2467 93.2198 29.9133 92.8598 29.5C92.4998 29.0867 92.3198 28.6067 92.3198 28.06C92.3198 27.14 92.6265 26.42 93.2398 25.9C93.8532 25.3667 94.6998 25.1 95.7798 25.1C96.8732 25.1 97.8998 25.3467 98.8598 25.84C98.8732 25.9733 98.8798 26.3333 98.8798 26.92C98.8798 27.4933 98.8198 27.9867 98.6998 28.4C98.3798 28.5067 97.9998 28.56 97.5598 28.56L96.8998 26.52C96.6065 26.3733 96.2065 26.3 95.6998 26.3C95.2065 26.3 94.8132 26.4333 94.5198 26.7C94.2265 26.9533 94.0798 27.28 94.0798 27.68C94.0798 28.0667 94.2598 28.4067 94.6198 28.7C94.9932 28.9933 95.4398 29.26 95.9598 29.5C96.4798 29.7267 96.9998 29.9733 97.5198 30.24C98.0398 30.4933 98.4798 30.8333 98.8398 31.26C99.2132 31.6733 99.3998 32.1533 99.3998 32.7C99.3998 33.66 99.0265 34.4133 98.2798 34.96C97.5465 35.4933 96.6398 35.76 95.5598 35.76C94.9732 35.76 94.3465 35.6667 93.6798 35.48C93.0132 35.28 92.4532 35.0267 91.9998 34.72C91.9998 33.8267 92.0798 33.0333 92.2398 32.34C92.5465 32.2867 92.9598 32.26 93.4798 32.26L93.7198 34.22ZM107.983 26.24L107.923 22.24C107.189 22.2 106.603 22.12 106.163 22L106.243 20.96C106.923 20.76 107.909 20.66 109.203 20.66C109.616 20.66 109.909 20.6733 110.083 20.7C110.083 20.94 110.043 21.26 109.963 21.66C109.896 22.0467 109.849 22.26 109.823 22.3L109.643 34.12C110.189 34.1467 110.769 34.24 111.383 34.4L111.343 35.1C110.423 35.5267 109.609 35.74 108.903 35.74C108.756 35.74 108.643 35.7333 108.563 35.72C108.456 35.52 108.323 35.06 108.163 34.34C106.629 35.2067 105.556 35.6733 104.943 35.74C103.663 35.74 102.703 35.2533 102.063 34.28C101.423 33.3067 101.103 32.06 101.103 30.54C101.103 29.0067 101.423 27.72 102.063 26.68C102.716 25.6267 103.676 25.1 104.943 25.1C105.929 25.1 106.943 25.48 107.983 26.24ZM105.283 26.46C103.723 26.46 102.943 27.74 102.943 30.3C102.943 31.3 103.103 32.1667 103.423 32.9C103.583 33.3 103.816 33.62 104.123 33.86C104.443 34.1 104.809 34.22 105.223 34.22C105.636 34.22 106.116 34.1267 106.663 33.94C107.223 33.7533 107.703 33.54 108.103 33.3L107.983 27.6C107.623 27.2933 107.183 27.0267 106.663 26.8C106.143 26.5733 105.683 26.46 105.283 26.46ZM117.491 34.38C118.078 34.38 118.998 34.1 120.251 33.54C120.505 33.8867 120.638 34.1933 120.651 34.46C119.971 34.86 119.305 35.1733 118.651 35.4C117.998 35.6267 117.531 35.74 117.251 35.74C115.705 35.74 114.525 35.28 113.711 34.36C112.898 33.4267 112.491 32.1267 112.491 30.46C112.491 28.7933 112.885 27.4867 113.671 26.54C114.471 25.58 115.665 25.1 117.251 25.1C118.478 25.1 119.411 25.54 120.051 26.42C120.705 27.3 121.031 28.48 121.031 29.96C120.925 30.1467 120.838 30.2733 120.771 30.34L114.331 30.24C114.345 31.5867 114.578 32.6133 115.031 33.32C115.498 34.0267 116.318 34.38 117.491 34.38ZM119.211 29.1C119.211 28.22 119.051 27.54 118.731 27.06C118.411 26.5667 117.878 26.32 117.131 26.32C116.385 26.32 115.718 26.46 115.131 26.74C114.731 27.54 114.478 28.36 114.371 29.2C115.425 29.1867 117.038 29.1533 119.211 29.1ZM125.346 20.64C125.759 20.64 126.052 20.6533 126.226 20.68C126.226 21.1467 126.139 21.68 125.966 22.28C125.846 30.1467 125.786 34.1 125.786 34.14L127.466 34.3C127.466 34.6733 127.352 35.0733 127.126 35.5H122.526L122.466 34.8C123.079 34.5867 123.679 34.4267 124.266 34.32L124.066 22.22C123.332 22.18 122.746 22.1 122.306 21.98L122.386 20.94C123.066 20.74 124.052 20.64 125.346 20.64ZM136.584 28.96L136.484 34.12C137.058 34.16 137.631 34.2533 138.204 34.4L138.164 35.1C137.951 35.2067 137.564 35.3267 137.004 35.46C136.458 35.58 135.918 35.64 135.384 35.64C135.144 35.16 135.011 34.7 134.984 34.26C133.464 35.26 132.398 35.76 131.784 35.76C130.838 35.76 130.078 35.5067 129.504 35C128.931 34.4933 128.644 33.7867 128.644 32.88C128.644 30.7867 129.924 29.7067 132.484 29.64C133.978 29.6 134.731 29.58 134.744 29.58L134.724 28.9C134.698 27.98 134.524 27.32 134.204 26.92C133.884 26.5067 133.311 26.3 132.484 26.3C132.138 26.3 131.764 26.38 131.364 26.54L130.884 28.54C130.818 28.5533 130.704 28.56 130.544 28.56L129.724 28.5C129.511 27.9267 129.398 27.1333 129.384 26.12C129.638 25.9867 130.218 25.7867 131.124 25.52C132.031 25.24 132.611 25.1 132.864 25.1C134.224 25.1 135.184 25.4 135.744 26C136.304 26.6 136.584 27.5867 136.584 28.96ZM132.224 34.4C132.611 34.4 133.504 33.9667 134.904 33.1L134.804 30.6C133.898 30.68 133.138 30.7533 132.524 30.82C131.911 30.8867 131.418 31.0667 131.044 31.36C130.671 31.64 130.484 32.0867 130.484 32.7C130.484 33.8333 131.064 34.4 132.224 34.4ZM144.405 34.38C144.992 34.38 145.912 34.1 147.165 33.54C147.419 33.8867 147.552 34.1933 147.565 34.46C146.885 34.86 146.219 35.1733 145.565 35.4C144.912 35.6267 144.445 35.74 144.165 35.74C142.619 35.74 141.439 35.28 140.625 34.36C139.812 33.4267 139.405 32.1267 139.405 30.46C139.405 28.7933 139.799 27.4867 140.585 26.54C141.385 25.58 142.579 25.1 144.165 25.1C145.392 25.1 146.325 25.54 146.965 26.42C147.619 27.3 147.945 28.48 147.945 29.96C147.839 30.1467 147.752 30.2733 147.685 30.34L141.245 30.24C141.259 31.5867 141.492 32.6133 141.945 33.32C142.412 34.0267 143.232 34.38 144.405 34.38ZM146.125 29.1C146.125 28.22 145.965 27.54 145.645 27.06C145.325 26.5667 144.792 26.32 144.045 26.32C143.299 26.32 142.632 26.46 142.045 26.74C141.645 27.54 141.392 28.36 141.285 29.2C142.339 29.1867 143.952 29.1533 146.125 29.1ZM159.26 27.34C159.313 27.7667 159.34 28.26 159.34 28.82C159.34 29.38 159.287 31.1533 159.18 34.14L160.86 34.3C160.86 34.6733 160.747 35.0733 160.52 35.5H155.92L155.86 34.8C156.473 34.5867 157.073 34.4267 157.66 34.32C157.58 30.7733 157.507 28.8 157.44 28.4C157.387 28 157.293 27.6667 157.16 27.4C157.027 27.12 156.82 26.9267 156.54 26.82C156.26 26.7133 155.833 26.66 155.26 26.66C154.7 26.66 153.96 26.8733 153.04 27.3C152.96 30.34 152.907 32.62 152.88 34.14L154.56 34.3C154.56 34.6733 154.447 35.0733 154.22 35.5H149.62L149.56 34.8C150.173 34.5867 150.773 34.4267 151.36 34.32C151.347 33.36 151.313 32.0067 151.26 30.26C151.207 28.5 151.173 27.3467 151.16 26.8C150.427 26.76 149.84 26.68 149.4 26.56L149.48 25.52C150.2 25.32 151.247 25.22 152.62 25.22C152.807 25.5533 152.927 25.9 152.98 26.26C153.567 25.9533 154.147 25.6867 154.72 25.46C155.293 25.22 155.653 25.1 155.8 25.1C157.28 25.1 158.313 25.5533 158.9 26.46C159.513 26.1267 160.147 25.82 160.8 25.54C161.467 25.2467 161.867 25.1 162 25.1C163.213 25.1 164.12 25.4 164.72 26C165.333 26.5867 165.64 27.5533 165.64 28.9C165.64 29.3 165.587 31.0467 165.48 34.14L167.16 34.3C167.16 34.6733 167.047 35.0733 166.82 35.5H162.22L162.16 34.8C162.773 34.5867 163.373 34.4267 163.96 34.32C163.907 32.2133 163.86 30.62 163.82 29.54C163.78 28.46 163.627 27.7133 163.36 27.3C163.093 26.8733 162.56 26.66 161.76 26.66C160.96 26.66 160.127 26.8867 159.26 27.34ZM170.775 20.64C171.189 20.64 171.482 20.6533 171.655 20.68C171.655 21.1467 171.569 21.68 171.395 22.28C171.275 30.1467 171.215 34.1 171.215 34.14L172.895 34.3C172.895 34.6733 172.782 35.0733 172.555 35.5H167.955L167.895 34.8C168.509 34.5867 169.109 34.4267 169.695 34.32L169.495 22.22C168.762 22.18 168.175 22.1 167.735 21.98L167.815 20.94C168.495 20.74 169.482 20.64 170.775 20.64ZM179.134 34.18C179.521 34.18 179.954 34.1 180.434 33.94C180.914 33.7667 181.307 33.56 181.614 33.32C181.561 30.48 181.514 28.3267 181.474 26.86C180.647 26.86 180.034 26.78 179.634 26.62L179.714 25.58C180.847 25.38 181.734 25.28 182.374 25.28C183.027 25.28 183.441 25.2933 183.614 25.32C183.614 25.56 183.574 25.88 183.494 26.28C183.427 26.68 183.381 26.9 183.354 26.94L183.114 34.08C183.821 34.12 184.394 34.2 184.834 34.32L184.794 35.34C184.207 35.5267 183.641 35.62 183.094 35.62C182.547 35.62 182.214 35.6133 182.094 35.6C181.841 35.0933 181.694 34.6267 181.654 34.2C181.001 34.6933 180.394 35.0733 179.834 35.34C179.287 35.6067 178.927 35.74 178.754 35.74C177.581 35.74 176.727 35.4267 176.194 34.8C175.674 34.16 175.414 33.2267 175.414 32C175.414 31.9867 175.474 30.28 175.594 26.88C174.821 26.88 174.107 26.7933 173.454 26.62L173.534 25.58C174.667 25.38 175.547 25.28 176.174 25.28C176.801 25.28 177.201 25.2933 177.374 25.32C177.374 25.64 177.334 25.9933 177.254 26.38C177.174 26.7667 177.127 26.9533 177.114 26.94L177.134 31.26C177.134 32.2733 177.261 33.0133 177.514 33.48C177.767 33.9467 178.307 34.18 179.134 34.18ZM190.628 35.74C189.028 35.74 187.835 35.2933 187.048 34.4C186.262 33.4933 185.868 32.2067 185.868 30.54C185.868 26.9133 187.482 25.1 190.708 25.1C191.228 25.1 191.768 25.18 192.328 25.34C192.888 25.4867 193.328 25.6533 193.648 25.84C193.608 27.08 193.482 27.96 193.268 28.48C193.028 28.5467 192.835 28.58 192.688 28.58H192.348C192.282 28.58 192.202 28.5733 192.108 28.56L191.608 26.36C191.168 26.32 190.915 26.3 190.848 26.3C189.888 26.3 189.122 26.5933 188.548 27.18C187.988 27.7667 187.708 28.7533 187.708 30.14C187.708 31.5267 187.922 32.58 188.348 33.3C188.788 34.02 189.628 34.38 190.868 34.38C191.455 34.38 192.375 34.1 193.628 33.54C193.882 33.8867 194.015 34.1933 194.028 34.46C193.348 34.86 192.682 35.1733 192.028 35.4C191.375 35.6267 190.908 35.74 190.628 35.74ZM198.102 20.64C198.515 20.64 198.809 20.6533 198.982 20.68C198.982 20.92 198.942 21.2333 198.862 21.62C198.795 21.9933 198.749 22.2133 198.722 22.28C198.722 22.5733 198.709 23.18 198.682 24.1C198.655 25.02 198.642 25.7333 198.642 26.24C199.215 25.9333 199.782 25.6667 200.342 25.44C200.915 25.2133 201.275 25.1 201.422 25.1C202.702 25.1 203.629 25.42 204.202 26.06C204.775 26.6867 205.062 27.6467 205.062 28.94C205.062 29.3133 205.009 31.0467 204.902 34.14L206.582 34.3C206.582 34.6733 206.469 35.0733 206.242 35.5H201.642L201.582 34.8C202.195 34.5867 202.795 34.4267 203.382 34.32C203.302 30.8267 203.229 28.8867 203.162 28.5C203.109 28.1 203.015 27.7533 202.882 27.46C202.749 27.1667 202.549 26.96 202.282 26.84C202.015 26.72 201.662 26.66 201.222 26.66C200.315 26.66 199.449 26.8733 198.622 27.3L198.502 34.14L200.182 34.3C200.182 34.6733 200.069 35.0733 199.842 35.5H195.242L195.182 34.8C195.795 34.5867 196.395 34.4267 196.982 34.32L196.742 22.22C196.009 22.18 195.422 22.1 194.982 21.98L195.062 20.94C195.742 20.74 196.755 20.64 198.102 20.64ZM209.306 34.22C209.772 34.42 210.339 34.52 211.006 34.52C211.686 34.52 212.219 34.3933 212.606 34.14C212.992 33.8867 213.186 33.54 213.186 33.1C213.186 32.66 213.006 32.2933 212.646 32C212.286 31.7067 211.846 31.4467 211.326 31.22C210.806 30.9933 210.286 30.7533 209.766 30.5C209.246 30.2467 208.806 29.9133 208.446 29.5C208.086 29.0867 207.906 28.6067 207.906 28.06C207.906 27.14 208.212 26.42 208.826 25.9C209.439 25.3667 210.286 25.1 211.366 25.1C212.459 25.1 213.486 25.3467 214.446 25.84C214.459 25.9733 214.466 26.3333 214.466 26.92C214.466 27.4933 214.406 27.9867 214.286 28.4C213.966 28.5067 213.586 28.56 213.146 28.56L212.486 26.52C212.192 26.3733 211.792 26.3 211.286 26.3C210.792 26.3 210.399 26.4333 210.106 26.7C209.812 26.9533 209.666 27.28 209.666 27.68C209.666 28.0667 209.846 28.4067 210.206 28.7C210.579 28.9933 211.026 29.26 211.546 29.5C212.066 29.7267 212.586 29.9733 213.106 30.24C213.626 30.4933 214.066 30.8333 214.426 31.26C214.799 31.6733 214.986 32.1533 214.986 32.7C214.986 33.66 214.612 34.4133 213.866 34.96C213.132 35.4933 212.226 35.76 211.146 35.76C210.559 35.76 209.932 35.6667 209.266 35.48C208.599 35.28 208.039 35.0267 207.586 34.72C207.586 33.8267 207.666 33.0333 207.826 32.34C208.132 32.2867 208.546 32.26 209.066 32.26L209.306 34.22ZM221.769 34.38C222.355 34.38 223.275 34.1 224.529 33.54C224.782 33.8867 224.915 34.1933 224.929 34.46C224.249 34.86 223.582 35.1733 222.929 35.4C222.275 35.6267 221.809 35.74 221.529 35.74C219.982 35.74 218.802 35.28 217.989 34.36C217.175 33.4267 216.769 32.1267 216.769 30.46C216.769 28.7933 217.162 27.4867 217.949 26.54C218.749 25.58 219.942 25.1 221.529 25.1C222.755 25.1 223.689 25.54 224.329 26.42C224.982 27.3 225.309 28.48 225.309 29.96C225.202 30.1467 225.115 30.2733 225.049 30.34L218.609 30.24C218.622 31.5867 218.855 32.6133 219.309 33.32C219.775 34.0267 220.595 34.38 221.769 34.38ZM223.489 29.1C223.489 28.22 223.329 27.54 223.009 27.06C222.689 26.5667 222.155 26.32 221.409 26.32C220.662 26.32 219.995 26.46 219.409 26.74C219.009 27.54 218.755 28.36 218.649 29.2C219.702 29.1867 221.315 29.1533 223.489 29.1Z" fill="#1E2329"/>
</svg>
