<svg width="29" height="29" viewBox="0 0 29 29" fill="none" xmlns="http://www.w3.org/2000/svg">
<path d="M24.7531 4.24694C22.0144 1.50828 18.373 0 14.5 0C10.627 0 6.9856 1.50828 4.24694 4.24694C1.50828 6.9856 0 10.627 0 14.5C0 18.373 1.50828 22.0144 4.24694 24.7531C6.9856 27.4917 10.627 29 14.5 29C18.373 29 22.0144 27.4917 24.7531 24.7531C27.4917 22.0144 29 18.373 29 14.5C29 10.627 27.4917 6.9856 24.7531 4.24694V4.24694ZM6.29308 24.3156C6.77187 20.1959 10.3139 17.0152 14.5 17.0152C16.7068 17.0152 18.7819 17.875 20.3428 19.4357C21.6615 20.7546 22.4932 22.4766 22.7071 24.3154C20.4836 26.1777 17.6205 27.3008 14.5 27.3008C11.3795 27.3008 8.51667 26.1779 6.29308 24.3156V24.3156ZM14.5 15.2651C12.0718 15.2651 10.096 13.2893 10.096 10.8611C10.096 8.43259 12.0718 6.45703 14.5 6.45703C16.9282 6.45703 18.904 8.43259 18.904 10.8611C18.904 13.2893 16.9282 15.2651 14.5 15.2651ZM24.1696 22.8791C23.7366 21.1334 22.8337 19.5238 21.5442 18.2343C20.4999 17.19 19.2645 16.4065 17.917 15.9156C19.5368 14.8171 20.6032 12.9612 20.6032 10.8611C20.6032 7.49581 17.8652 4.75781 14.5 4.75781C11.1348 4.75781 8.39675 7.49581 8.39675 10.8611C8.39675 12.9623 9.46407 14.8188 11.0852 15.9171C9.84551 16.3689 8.69832 17.0674 7.71131 17.9869C6.28202 19.318 5.28948 21.0152 4.82928 22.8777C2.88026 20.6309 1.69922 17.7009 1.69922 14.5C1.69922 7.4416 7.4416 1.69922 14.5 1.69922C21.5584 1.69922 27.3008 7.4416 27.3008 14.5C27.3008 17.7015 26.1193 20.6322 24.1696 22.8791V22.8791Z" fill="black" fill-opacity="0.81"/>
</svg>
